<svg xmlns="http://www.w3.org/2000/svg" width="1200" height="700" viewBox="0 0 1200 700" role="img" aria-labelledby="title desc"><title>İş yükü ayrıntısı — A100 80GB</title><desc>70–72B model inference için OMAY pSEO görseli.</desc><rect width="1200" height="700" fill="#f5f8f7"/><rect x="38" y="38" width="1124" height="624" rx="24" fill="#5a6971"/><path d="M38 520 C240 410 340 590 540 470 S850 350 1162 470 V662 H38Z" fill="#5a6971" opacity="0.42"/><path d="M38 160 C240 260 310 70 520 190 S880 280 1162 130" fill="none" stroke="#dff7f2" stroke-width="9" opacity="0.6"/><line x1="80" y1="187" x2="210" y2="142" stroke="#5a6971" stroke-width="5" opacity="0.55"/><line x1="300" y1="208" x2="430" y2="136" stroke="#5a6971" stroke-width="3" opacity="0.55"/><line x1="520" y1="154" x2="650" y2="203" stroke="#5a6971" stroke-width="5" opacity="0.55"/><line x1="740" y1="192" x2="870" y2="166" stroke="#5a6971" stroke-width="3" opacity="0.55"/><line x1="960" y1="146" x2="1090" y2="148" stroke="#5a6971" stroke-width="5" opacity="0.55"/><rect x="90" y="316" width="58" height="174" rx="7" fill="#dff7f2" opacity="0.42"/><rect x="195" y="368" width="58" height="122" rx="7" fill="#5a6971" opacity="0.50"/><rect x="300" y="394" width="58" height="96" rx="7" fill="#dff7f2" opacity="0.58"/><rect x="405" y="407" width="58" height="83" rx="7" fill="#5a6971" opacity="0.66"/><rect x="510" y="414" width="58" height="76" rx="7" fill="#dff7f2" opacity="0.74"/><circle cx="920" cy="190" r="88" fill="#dff7f2" opacity="0.24"/><circle cx="920" cy="190" r="48" fill="none" stroke="#dff7f2" stroke-width="9" opacity="0.72"/><path d="M876 190h88M920 146v88" stroke="#dff7f2" stroke-width="7" opacity="0.72"/><text x="82" y="114" fill="#ffffff" font-family="Arial, sans-serif" font-size="24" font-weight="700" letter-spacing="2">OMAY / İŞ YÜKÜ AYRINTISI</text><text x="82" y="610" fill="#ffffff" font-family="Arial, sans-serif" font-size="22" opacity="0.82">A100 80GB</text><text x="82" y="640" fill="#ffffff" font-family="Arial, sans-serif" font-size="17" opacity="0.62">70–72B model inference</text></svg>